<?xml version="1.0" encoding="utf-8"?>
<!-- Generator: Adobe Illustrator 18.0.0, SVG Export Plug-In . SVG Version: 6.00 Build 0)  -->
<!DOCTYPE svg PUBLIC "-//W3C//DTD SVG 1.1//EN" "http://www.w3.org/Graphics/SVG/1.1/DTD/svg11.dtd">
<svg version="1.1" id="Layer" xmlns="http://www.w3.org/2000/svg" xmlns:xlink="http://www.w3.org/1999/xlink" x="0px" y="0px"
	 viewBox="0 0 800 800" enable-background="new 0 0 800 800" xml:space="preserve">
<line class="glyph" fill="none" stroke="#000000" stroke-miterlimit="10" x1="399.5" y1="112" x2="399.5" y2="700"/>
<path class="shape" fill="none" stroke="#000000" d="M419,137.8c0,77.4-0.7,162.6-0.7,254.8c-0.7,123.9,2.1,206.2,7,266
	c0,4.2,0.7,12,0.7,15.5c0,26.7-35.2,30.3-37.3,30.3c-11.3,0-13.4-8.4-13.4-17.6c0-1.4,0-12,0.7-14.1c4.2-102.7,5.6-185.8,5.6-363.8
	c0-29.6-0.7-133.7-4.9-180.2c-2.1-20.4-4.9-33.8-8.4-47.9l61.9,20.4c10.6,3.5,16.2,5.6,16.2,12C446.4,120.2,430.2,130.8,419,137.8z"
	/>
<rect class="fixed" x="356.6" y="649" fill="none" stroke="#000000" width="86.8" height="84"/>
<rect class="fixed" x="344.6" y="70" fill="none" stroke="#000000" width="120.8" height="84"/>
</svg>
